<svg width="100" height="100" viewBox="0 0 100 100" fill="none" xmlns="http://www.w3.org/2000/svg">
<path fill-rule="evenodd" clip-rule="evenodd" d="M16.0833 9.08627C16.0833 9.08627 16.0833 9.14407 15.9686 9.20187C15.9686 9.20187 13.154 10.1267 11.0849 12.1478C9.07562 14.1688 8.15668 17.0579 8.15668 17.0579C8.15668 17.1725 8.04206 17.1725 8.04206 17.1725C8.04206 17.1725 7.98328 17.1725 7.92646 17.0579C7.92646 17.0579 7.00752 14.1688 4.9982 12.1478C2.98692 10.1267 0.1145 9.20187 0.1145 9.20187C-0.000122056 9.20187 -0.00012207 9.08627 -0.00012207 9.08627C-0.00012207 9.08627 -0.000122056 9.02847 0.1145 8.97067C0.1145 8.97067 2.92912 8.04683 4.9982 6.02477C7.00752 4.0037 7.92646 1.1156 7.92646 1.1156C7.92646 1 8.04206 1 8.04206 1C8.04206 1 8.15668 1 8.15668 1.1156C8.15668 1.1156 9.07562 4.0037 11.0849 6.02477C13.0962 8.04683 15.9686 8.97067 15.9686 8.97067C16.0833 9.02847 16.0833 9.08627 16.0833 9.08627Z" fill="#FFCB05"/>
<path fill-rule="evenodd" clip-rule="evenodd" d="M6.42057 61.0049C6.42057 61.0049 6.42057 61.0274 6.37453 61.0509C6.37453 61.0509 5.25083 61.4203 4.42594 62.2275C3.62359 63.0338 3.25621 64.1869 3.25621 64.1869C3.25621 64.2329 3.21016 64.2329 3.21016 64.2329C3.21016 64.2329 3.18665 64.2329 3.16412 64.1869C3.16412 64.1869 2.79772 63.0338 1.99438 62.2275C1.19203 61.4203 0.0458008 61.0509 0.0458008 61.0509C-0.000244141 61.0509 -0.000244141 61.0049 -0.000244141 61.0049C-0.000244141 61.0049 -0.000244141 60.9824 0.0458008 60.9589C0.0458008 60.9589 1.16949 60.5895 1.99438 59.7823C2.79772 58.976 3.16412 57.8229 3.16412 57.8229C3.16412 57.7769 3.21016 57.7769 3.21016 57.7769C3.21016 57.7769 3.25621 57.7769 3.25621 57.8229C3.25621 57.8229 3.62359 58.976 4.42594 59.7823C5.2283 60.5895 6.37453 60.9589 6.37453 60.9589C6.42057 60.9824 6.42057 61.0049 6.42057 61.0049Z" fill="#C00033"/>
<path fill-rule="evenodd" clip-rule="evenodd" d="M46.1597 94.3403C46.1597 94.3403 46.1597 94.3746 46.0911 94.4089C46.0911 94.4089 44.41 94.9614 43.1746 96.1694C41.9745 97.3763 41.4249 99.1016 41.4249 99.1016C41.4249 99.1711 41.3563 99.1711 41.3563 99.1711C41.3563 99.1711 41.3221 99.1711 41.2868 99.1016C41.2868 99.1016 40.7391 97.3763 39.5371 96.1694C38.337 94.9614 36.6216 94.4089 36.6216 94.4089C36.552 94.4089 36.552 94.3403 36.552 94.3403C36.552 94.3403 36.552 94.306 36.6216 94.2717C36.6216 94.2717 38.3017 93.7192 39.5371 92.5113C40.7391 91.3033 41.2868 89.5791 41.2868 89.5791C41.2868 89.5095 41.3563 89.5095 41.3563 89.5095C41.3563 89.5095 41.4249 89.5095 41.4249 89.5791C41.4249 89.5791 41.9745 91.3033 43.1746 92.5113C44.3757 93.7192 46.0911 94.2717 46.0911 94.2717C46.1597 94.306 46.1597 94.3403 46.1597 94.3403Z" fill="#C00033"/>
<path fill-rule="evenodd" clip-rule="evenodd" d="M100 37.1625C100 37.1625 100 37.1949 99.9373 37.2262C99.9373 37.2262 98.3796 37.7376 97.2344 38.8564C96.1214 39.9762 95.613 41.574 95.613 41.574C95.613 41.6377 95.5493 41.6377 95.5493 41.6377C95.5493 41.6377 95.518 41.6377 95.4866 41.574C95.4866 41.574 94.9772 39.9762 93.8643 38.8564C92.7523 37.7376 91.1623 37.2262 91.1623 37.2262C91.0996 37.2262 91.0996 37.1625 91.0996 37.1625C91.0996 37.1625 91.0996 37.1312 91.1623 37.0989C91.1623 37.0989 92.72 36.5875 93.8643 35.4687C94.9772 34.3489 95.4866 32.7511 95.4866 32.7511C95.4866 32.6874 95.5493 32.6874 95.5493 32.6874C95.5493 32.6874 95.613 32.6874 95.613 32.7511C95.613 32.7511 96.1214 34.3489 97.2344 35.4687C98.3473 36.5875 99.9373 37.0989 99.9373 37.0989C100 37.1312 100 37.1625 100 37.1625Z" fill="#C00033"/>
<path fill-rule="evenodd" clip-rule="evenodd" d="M17.4026 27.0682C22.6644 15.6667 34.6145 6.0394 42.6783 13.8102C47.1799 17.3919 50.7234 21.3116 66.7147 20.5034C69.9898 20.3143 85.987 19.8264 88.7399 36.7465C89.1268 40.2743 88.9093 49.4068 79.5593 58.3209C76.7153 60.9455 67.8874 66.7648 75.2075 76.7859C79.474 82.6013 74.561 91.0618 58.4648 89.1789C51.0634 88.6734 -8.2709 82.6963 17.4026 27.0682Z" fill="#FFE29B"/>
<path fill-rule="evenodd" clip-rule="evenodd" d="M59.5948 64.2726H19.2095C17.5872 64.2726 16.2705 62.9569 16.2705 61.3336V57.2317H59.5948V64.2726Z" fill="#FFCB05"/>
<path fill-rule="evenodd" clip-rule="evenodd" d="M59.5958 57.2314H16.2705V61.3833C16.2705 62.9792 17.5647 64.2724 19.1606 64.2724H59.5958V57.2314ZM58.2302 58.5961V62.9067H19.1606C18.32 62.9067 17.6362 62.2239 17.6362 61.3833V58.5961H58.2302Z" fill="black"/>
<path fill-rule="evenodd" clip-rule="evenodd" d="M59.5948 58.5836H16.2705V30.702C16.2705 29.0786 17.5872 27.7629 19.2095 27.7629H56.6558C58.2791 27.7629 59.5948 29.0786 59.5948 30.702V58.5836Z" fill="white"/>
<path fill-rule="evenodd" clip-rule="evenodd" d="M56.7065 27.7632H19.1603C17.5644 27.7632 16.2712 29.0564 16.2712 30.6523V58.5829H59.5956V30.6523C59.5956 29.0564 58.3014 27.7632 56.7065 27.7632ZM56.7065 29.1289C57.5461 29.1289 58.2309 29.8117 58.2309 30.6523V57.2182H17.6359V30.6523C17.6359 29.8117 18.3197 29.1289 19.1603 29.1289H56.7065Z" fill="black"/>
<path fill-rule="evenodd" clip-rule="evenodd" d="M82.9751 64.2724H58.2196V35.1897H72.0027C73.3272 35.1897 74.4823 36.09 74.8046 37.3754L77.1147 46.5834L83.9528 49.0433C85.0991 49.4558 85.8642 50.5432 85.8642 51.7619V61.3834C85.8642 62.9793 84.571 64.2724 82.9751 64.2724Z" fill="#F5CB38"/>
<path fill-rule="evenodd" clip-rule="evenodd" d="M72.0025 35.1895H58.2203V64.2722H82.9749C84.5708 64.2722 85.8639 62.979 85.8639 61.3831V51.7617C85.8639 50.543 85.0998 49.4555 83.9526 49.0431L77.1144 46.5831L74.8043 37.3751C74.482 36.0898 73.328 35.1895 72.0025 35.1895ZM72.0025 36.5541C72.7029 36.5541 73.3103 37.0283 73.4808 37.7072L75.7899 46.9152L75.9682 47.6206L76.652 47.8675L83.4912 50.3275C84.0937 50.5449 84.4993 51.121 84.4993 51.7617V61.3831C84.4993 62.2237 83.8154 62.9065 82.9749 62.9065H59.585V36.5541H72.0025Z" fill="black"/>
<path fill-rule="evenodd" clip-rule="evenodd" d="M43.0426 62.7495C43.0426 67.2354 39.4061 70.873 34.9201 70.873C30.4332 70.873 26.7966 67.2354 26.7966 62.7495C26.7966 58.2635 30.4332 54.627 34.9201 54.627C39.4061 54.627 43.0426 58.2635 43.0426 62.7495Z" fill="white"/>
<path fill-rule="evenodd" clip-rule="evenodd" d="M34.9201 54.627C30.4332 54.627 26.7966 58.2635 26.7966 62.7495C26.7966 67.2354 30.4332 70.873 34.9201 70.873C39.4061 70.873 43.0426 67.2354 43.0426 62.7495C43.0426 58.2635 39.4061 54.627 34.9201 54.627ZM34.9201 55.9916C38.6458 55.9916 41.677 59.0228 41.677 62.7495C41.677 66.4762 38.6458 69.5073 34.9201 69.5073C31.1934 69.5073 28.1623 66.4762 28.1623 62.7495C28.1623 59.0228 31.1934 55.9916 34.9201 55.9916Z" fill="black"/>
<path fill-rule="evenodd" clip-rule="evenodd" d="M38.702 62.7493C38.702 64.838 37.0082 66.5319 34.9205 66.5319C32.8308 66.5319 31.137 64.838 31.137 62.7493C31.137 60.6607 32.8308 58.9668 34.9205 58.9668C37.0082 58.9668 38.702 60.6607 38.702 62.7493Z" fill="#F5CB38"/>
<path fill-rule="evenodd" clip-rule="evenodd" d="M34.9201 58.9668C32.8305 58.9668 31.1376 60.6607 31.1376 62.7493C31.1376 64.838 32.8305 66.5319 34.9201 66.5319C37.0088 66.5319 38.7017 64.838 38.7017 62.7493C38.7017 60.6607 37.0088 58.9668 34.9201 58.9668ZM34.9201 60.3325C36.2525 60.3325 37.337 61.416 37.337 62.7493C37.337 64.0817 36.2525 65.1662 34.9201 65.1662C33.5868 65.1662 32.5023 64.0817 32.5023 62.7493C32.5023 61.416 33.5868 60.3325 34.9201 60.3325Z" fill="black"/>
<path fill-rule="evenodd" clip-rule="evenodd" d="M80.6015 62.7495C80.6015 67.2354 76.9649 70.873 72.479 70.873C67.993 70.873 64.3564 67.2354 64.3564 62.7495C64.3564 58.2635 67.993 54.627 72.479 54.627C76.9649 54.627 80.6015 58.2635 80.6015 62.7495Z" fill="white"/>
<path fill-rule="evenodd" clip-rule="evenodd" d="M72.479 54.627C67.993 54.627 64.3564 58.2635 64.3564 62.7495C64.3564 67.2354 67.993 70.873 72.479 70.873C76.9649 70.873 80.6015 67.2354 80.6015 62.7495C80.6015 58.2635 76.9649 54.627 72.479 54.627ZM72.479 55.9916C76.2057 55.9916 79.2368 59.0228 79.2368 62.7495C79.2368 66.4762 76.2057 69.5073 72.479 69.5073C68.7523 69.5073 65.7221 66.4762 65.7221 62.7495C65.7221 59.0228 68.7523 55.9916 72.479 55.9916Z" fill="black"/>
<path fill-rule="evenodd" clip-rule="evenodd" d="M76.2608 62.7493C76.2608 64.838 74.5679 66.5319 72.4792 66.5319C70.3905 66.5319 68.6967 64.838 68.6967 62.7493C68.6967 60.6607 70.3905 58.9668 72.4792 58.9668C74.5679 58.9668 76.2608 60.6607 76.2608 62.7493Z" fill="#F5CB38"/>
<path fill-rule="evenodd" clip-rule="evenodd" d="M72.4789 58.9668C70.3903 58.9668 68.6974 60.6607 68.6974 62.7493C68.6974 64.838 70.3903 66.5319 72.4789 66.5319C74.5686 66.5319 76.2605 64.838 76.2605 62.7493C76.2605 60.6607 74.5686 58.9668 72.4789 58.9668ZM72.4789 60.3325C73.8113 60.3325 74.8968 61.416 74.8968 62.7493C74.8968 64.0817 73.8113 65.1662 72.4789 65.1662C71.1466 65.1662 70.0621 64.0817 70.0621 62.7493C70.0621 61.416 71.1466 60.3325 72.4789 60.3325Z" fill="black"/>
<path fill-rule="evenodd" clip-rule="evenodd" d="M65.2194 54.3413H59.0974C58.7192 54.3413 58.4146 54.0356 58.4146 53.6594C58.4146 53.2812 58.7192 52.9766 59.0974 52.9766H65.2194C65.5966 52.9766 65.9022 53.2812 65.9022 53.6594C65.9022 54.0356 65.5966 54.3413 65.2194 54.3413Z" fill="black"/>
<path fill-rule="evenodd" clip-rule="evenodd" d="M77.365 47.6634H66.0781C65.0152 47.6634 64.1531 46.8012 64.1531 45.7373V40.833C64.1531 39.7691 65.0152 38.907 66.0781 38.907H75.1852L77.365 47.6634Z" fill="white"/>
<path fill-rule="evenodd" clip-rule="evenodd" d="M75.1856 38.9072H66.0785C65.0146 38.9072 64.1525 39.7693 64.1525 40.8333V45.7375C64.1525 46.8015 65.0146 47.6636 66.0785 47.6636H77.3654L75.1856 38.9072ZM74.1011 40.2954L75.5883 46.2754H66.0785C65.7827 46.2754 65.5407 46.0334 65.5407 45.7375V40.8333C65.5407 40.5374 65.7827 40.2954 66.0785 40.2954H74.1011Z" fill="black"/>
<path fill-rule="evenodd" clip-rule="evenodd" d="M70.3254 42.8281H67.5352C67.1591 42.8281 66.8534 42.5224 66.8534 42.1462C66.8534 41.769 67.1591 41.4634 67.5352 41.4634H70.3254C70.7026 41.4634 71.0082 41.769 71.0082 42.1462C71.0082 42.5224 70.7026 42.8281 70.3254 42.8281Z" fill="black"/>
<path fill-rule="evenodd" clip-rule="evenodd" d="M62.1579 78.0024C62.1579 78.0024 62.1579 78.0308 62.1001 78.0602C62.1001 78.0602 60.6923 78.5226 59.6568 79.5346C58.6507 80.5466 58.1902 81.9926 58.1902 81.9926C58.1902 82.0504 58.1334 82.0504 58.1334 82.0504C58.1334 82.0504 58.104 82.0504 58.0756 81.9926C58.0756 81.9926 57.6152 80.5466 56.609 79.5346C55.6029 78.5226 54.1647 78.0602 54.1647 78.0602C54.1069 78.0602 54.1069 78.0024 54.1069 78.0024C54.1069 78.0024 54.1069 77.973 54.1647 77.9446C54.1647 77.9446 55.5735 77.4822 56.609 76.4702C57.6152 75.4572 58.0756 74.0121 58.0756 74.0121C58.0756 73.9543 58.1334 73.9543 58.1334 73.9543C58.1334 73.9543 58.1902 73.9543 58.1902 74.0121C58.1902 74.0121 58.6507 75.4572 59.6568 76.4702C60.6629 77.4822 62.1001 77.9446 62.1001 77.9446C62.1579 77.973 62.1579 78.0024 62.1579 78.0024Z" fill="white"/>
<path fill-rule="evenodd" clip-rule="evenodd" d="M38.6465 19.3877C38.6465 19.3877 38.6465 19.4142 38.5936 19.4416C38.5936 19.4416 37.2837 19.8717 36.3217 20.8122C35.3871 21.7526 34.959 23.0968 34.959 23.0968C34.959 23.1497 34.9061 23.1497 34.9061 23.1497C34.9061 23.1497 34.8786 23.1497 34.8522 23.0968C34.8522 23.0968 34.4241 21.7526 33.4885 20.8122C32.5539 19.8717 31.2176 19.4416 31.2176 19.4416C31.1637 19.4416 31.1637 19.3877 31.1637 19.3877C31.1637 19.3877 31.1637 19.3612 31.2176 19.3338C31.2176 19.3338 32.5274 18.9037 33.4885 17.9632C34.4241 17.0228 34.8522 15.6786 34.8522 15.6786C34.8522 15.6257 34.9061 15.6257 34.9061 15.6257C34.9061 15.6257 34.959 15.6257 34.959 15.6786C34.959 15.6786 35.3871 17.0228 36.3217 17.9632C37.2573 18.9037 38.5936 19.3338 38.5936 19.3338C38.6465 19.3612 38.6465 19.3877 38.6465 19.3877Z" fill="#FFCB05"/>
<path fill-rule="evenodd" clip-rule="evenodd" d="M58.5338 36.5517H17.1659C16.7887 36.5517 16.483 36.246 16.483 35.8689C16.483 35.4917 16.7887 35.187 17.1659 35.187H58.5338C58.911 35.187 59.2157 35.4917 59.2157 35.8689C59.2157 36.246 58.911 36.5517 58.5338 36.5517Z" fill="black"/>
<path fill-rule="evenodd" clip-rule="evenodd" d="M25.3413 29.1313H29.0592V27.2229H25.3413V29.1313Z" fill="#FFE29B"/>
<path fill-rule="evenodd" clip-rule="evenodd" d="M32.8643 29.1313H36.5821V27.2229H32.8643V29.1313Z" fill="#FFE29B"/>
<path fill-rule="evenodd" clip-rule="evenodd" d="M48.7733 64.5898H52.4912V62.9038H48.7733V64.5898Z" fill="#FFE29B"/>
</svg>
