<svg width="100" height="100" viewBox="0 0 100 100" fill="none" xmlns="http://www.w3.org/2000/svg">
<g clip-path="url(#clip0)">
<path fill-rule="evenodd" clip-rule="evenodd" d="M16.4165 9.254C16.4165 9.254 16.4165 9.313 16.2995 9.372C16.2995 9.372 13.4265 10.315 11.3155 12.379C9.26351 14.442 8.32551 17.39 8.32551 17.39C8.32551 17.508 8.20851 17.508 8.20851 17.508C8.20851 17.508 8.14951 17.508 8.09151 17.39C8.09151 17.39 7.15251 14.442 5.10151 12.379C3.04851 10.315 0.117512 9.372 0.117512 9.372C-0.000488281 9.372 -0.000488281 9.254 -0.000488281 9.254C-0.000488281 9.254 -0.000488281 9.195 0.117512 9.136C0.117512 9.136 2.98951 8.192 5.10151 6.129C7.15251 4.066 8.09151 1.117 8.09151 1.117C8.09151 1 8.20851 1 8.20851 1C8.20851 1 8.32551 1 8.32551 1.117C8.32551 1.117 9.26351 4.066 11.3155 6.129C13.3675 8.192 16.2995 9.136 16.2995 9.136C16.4165 9.195 16.4165 9.254 16.4165 9.254Z" fill="#FFCB05"/>
<path fill-rule="evenodd" clip-rule="evenodd" d="M74.7642 14.9182C74.7642 14.9182 74.7642 14.9372 74.7272 14.9552C74.7272 14.9552 73.8252 15.2512 73.1612 15.9002C72.5162 16.5482 72.2212 17.4752 72.2212 17.4752C72.2212 17.5122 72.1852 17.5122 72.1852 17.5122C72.1852 17.5122 72.1662 17.5122 72.1482 17.4752C72.1482 17.4752 71.8532 16.5482 71.2082 15.9002C70.5632 15.2512 69.6422 14.9552 69.6422 14.9552C69.6052 14.9552 69.6052 14.9182 69.6052 14.9182C69.6052 14.9182 69.6052 14.8992 69.6422 14.8812C69.6422 14.8812 70.5452 14.5852 71.2082 13.9362C71.8532 13.2882 72.1482 12.3612 72.1482 12.3612C72.1482 12.3242 72.1852 12.3242 72.1852 12.3242C72.1852 12.3242 72.2212 12.3242 72.2212 12.3612C72.2212 12.3612 72.5162 13.2882 73.1612 13.9362C73.8062 14.5852 74.7272 14.8812 74.7272 14.8812C74.7642 14.8992 74.7642 14.9182 74.7642 14.9182Z" fill="#FFCB05"/>
<path fill-rule="evenodd" clip-rule="evenodd" d="M48.5298 91.9955C48.5298 91.9955 48.5298 92.0305 48.4598 92.0655C48.4598 92.0655 46.7428 92.6295 45.4818 93.8625C44.2568 95.0945 43.6958 96.8555 43.6958 96.8555C43.6958 96.9265 43.6268 96.9265 43.6268 96.9265C43.6268 96.9265 43.5918 96.9265 43.5558 96.8555C43.5558 96.8555 42.9958 95.0945 41.7698 93.8625C40.5448 92.6295 38.7928 92.0655 38.7928 92.0655C38.7228 92.0655 38.7228 91.9955 38.7228 91.9955C38.7228 91.9955 38.7228 91.9605 38.7928 91.9245C38.7928 91.9245 40.5088 91.3615 41.7698 90.1285C42.9958 88.8955 43.5558 87.1345 43.5558 87.1345C43.5558 87.0645 43.6268 87.0645 43.6268 87.0645C43.6268 87.0645 43.6958 87.0645 43.6958 87.1345C43.6958 87.1345 44.2568 88.8955 45.4818 90.1285C46.7088 91.3615 48.4598 91.9245 48.4598 91.9245C48.5298 91.9605 48.5298 91.9955 48.5298 91.9955Z" fill="#C00033"/>
<path fill-rule="evenodd" clip-rule="evenodd" d="M11.9292 57.1146C11.9292 57.1146 11.9292 57.1376 11.8822 57.1616C11.8822 57.1616 10.7352 57.5386 9.89324 58.3626C9.07424 59.1856 8.69924 60.3626 8.69924 60.3626C8.69924 60.4096 8.65224 60.4096 8.65224 60.4096C8.65224 60.4096 8.62824 60.4096 8.60524 60.3626C8.60524 60.3626 8.23124 59.1856 7.41124 58.3626C6.59224 57.5386 5.42224 57.1616 5.42224 57.1616C5.37524 57.1616 5.37524 57.1146 5.37524 57.1146C5.37524 57.1146 5.37524 57.0916 5.42224 57.0676C5.42224 57.0676 6.56924 56.6906 7.41124 55.8666C8.23124 55.0436 8.60524 53.8666 8.60524 53.8666C8.60524 53.8196 8.65224 53.8196 8.65224 53.8196C8.65224 53.8196 8.69924 53.8196 8.69924 53.8666C8.69924 53.8666 9.07424 55.0436 9.89324 55.8666C10.7112 56.6906 11.8822 57.0676 11.8822 57.0676C11.9292 57.0916 11.9292 57.1146 11.9292 57.1146Z" fill="#C00033"/>
<path fill-rule="evenodd" clip-rule="evenodd" d="M38.71 66.7452H42.666V65.2632H38.71V66.7452Z" fill="white"/>
<path fill-rule="evenodd" clip-rule="evenodd" d="M20.4568 51.6275C20.4568 51.6275 4.6128 46.2145 7.3088 29.3375C8.8218 21.2595 18.7798 7.11852 39.7558 16.2685C44.3048 18.0935 49.2938 16.5655 57.1258 11.2305C63.5718 6.67352 73.7638 4.25252 83.1688 17.7725C86.5738 22.6705 101.576 47.2775 80.7898 60.2185C79.1508 90.1425 22.9008 96.9005 20.4568 51.6275Z" fill="#FFE29B"/>
<path fill-rule="evenodd" clip-rule="evenodd" d="M73.1004 66.7455H26.4984C24.2914 66.7455 22.5024 64.9565 22.5024 62.7495V23.5065C22.5024 22.4105 23.3914 21.5205 24.4884 21.5205H75.1154C76.2114 21.5205 77.1004 22.4105 77.1004 23.5065V62.7455C77.1004 64.9545 75.3094 66.7455 73.1004 66.7455Z" fill="white"/>
<path fill-rule="evenodd" clip-rule="evenodd" d="M75.1151 21.5208H24.4881C23.3911 21.5208 22.5031 22.4098 22.5031 23.5058V62.7497C22.5031 64.9567 24.2921 66.7458 26.4991 66.7458H73.1001C75.3091 66.7458 77.1001 64.9548 77.1001 62.7458V23.5058C77.1001 22.4098 76.2111 21.5208 75.1151 21.5208ZM75.1151 22.9378C75.4271 22.9378 75.6831 23.1928 75.6831 23.5058V62.7458C75.6831 64.1698 74.5251 65.3288 73.1001 65.3288H26.4991C25.0771 65.3288 23.9201 64.1707 23.9201 62.7497V23.5058C23.9201 23.1928 24.1761 22.9378 24.4881 22.9378H75.1151Z" fill="black"/>
<path fill-rule="evenodd" clip-rule="evenodd" d="M49.4744 51.4588H32.3344L37.6254 46.1678L36.6224 45.1658L29.6174 52.1708V52.1718L36.6154 59.1698L37.6184 58.1668L32.3284 52.8768H49.4744V51.4588Z" fill="black"/>
<path fill-rule="evenodd" clip-rule="evenodd" d="M39.5174 38.97H13.8844C13.6114 38.97 13.4414 38.672 13.5814 38.437L22.6804 23.205C23.0414 22.6 23.6954 22.229 24.3994 22.229H49.8014L39.9474 38.726C39.8574 38.877 39.6934 38.97 39.5174 38.97Z" fill="#FFCB05"/>
<path fill-rule="evenodd" clip-rule="evenodd" d="M14.5126 38.2615H39.3996L48.5526 22.9385H24.3996C23.9466 22.9385 23.5216 23.1795 23.2886 23.5685L14.5126 38.2615ZM39.5176 39.6785H13.8846C13.5026 39.6785 13.1496 39.4725 12.9606 39.1405C12.7736 38.8085 12.7786 38.3995 12.9736 38.0725L22.0726 22.8425C22.5586 22.0275 23.4506 21.5215 24.3996 21.5215H51.0506L40.5556 39.0895C40.3406 39.4515 39.9426 39.6785 39.5176 39.6785Z" fill="black"/>
<path fill-rule="evenodd" clip-rule="evenodd" d="M60.0839 38.97H85.7239C85.9949 38.97 86.1629 38.674 86.0229 38.441L76.9229 23.205C76.5619 22.6 75.9079 22.229 75.2029 22.229H49.8019L59.6569 38.728C59.7469 38.878 59.9089 38.97 60.0839 38.97Z" fill="#FFCB05"/>
<path fill-rule="evenodd" clip-rule="evenodd" d="M60.204 38.2615H85.091L76.314 23.5695C76.082 23.1795 75.656 22.9385 75.203 22.9385H51.051L60.204 38.2615ZM85.724 39.6785H60.084C59.662 39.6785 59.266 39.4535 59.049 39.0915L48.553 21.5215H75.203C76.152 21.5215 77.045 22.0275 77.531 22.8425L86.632 38.0775C86.827 38.4035 86.832 38.8115 86.644 39.1415C86.457 39.4725 86.104 39.6785 85.724 39.6785Z" fill="black"/>
<path fill-rule="evenodd" clip-rule="evenodd" d="M49.0676 66.0791H50.4856V22.2031H49.0676V66.0791Z" fill="black"/>
<path fill-rule="evenodd" clip-rule="evenodd" d="M68.7068 52.8762H57.8528C57.4618 52.8762 57.1438 52.5592 57.1438 52.1682C57.1438 51.7762 57.4618 51.4592 57.8528 51.4592H68.7068C69.0988 51.4592 69.4158 51.7762 69.4158 52.1682C69.4158 52.5592 69.0988 52.8762 68.7068 52.8762Z" fill="black"/>
<path fill-rule="evenodd" clip-rule="evenodd" d="M68.7068 56.1111H57.8528C57.4618 56.1111 57.1438 55.7941 57.1438 55.4031C57.1438 55.0111 57.4618 54.6941 57.8528 54.6941H68.7068C69.0988 54.6941 69.4158 55.0111 69.4158 55.4031C69.4158 55.7941 69.0988 56.1111 68.7068 56.1111Z" fill="black"/>
<path fill-rule="evenodd" clip-rule="evenodd" d="M63.28 59.3464H57.853C57.462 59.3464 57.144 59.0294 57.144 58.6384C57.144 58.2464 57.462 57.9294 57.853 57.9294H63.28C63.672 57.9294 63.989 58.2464 63.989 58.6384C63.989 59.0294 63.672 59.3464 63.28 59.3464Z" fill="black"/>
<path fill-rule="evenodd" clip-rule="evenodd" d="M48.9746 39.871H50.5736V35.916H48.9746V39.871Z" fill="white"/>
<path fill-rule="evenodd" clip-rule="evenodd" d="M33.6807 23.003H37.6357V21.521H33.6807V23.003Z" fill="#FFCB05"/>
<path fill-rule="evenodd" clip-rule="evenodd" d="M68.3687 74.5213C68.3687 74.5213 68.3687 74.5483 68.3147 74.5753C68.3147 74.5753 66.9937 75.0093 66.0227 75.9583C65.0797 76.9073 64.6477 78.2633 64.6477 78.2633C64.6477 78.3173 64.5947 78.3173 64.5947 78.3173C64.5947 78.3173 64.5667 78.3173 64.5397 78.2633C64.5397 78.2633 64.1087 76.9073 63.1647 75.9583C62.2217 75.0093 60.8727 74.5753 60.8727 74.5753C60.8187 74.5753 60.8187 74.5213 60.8187 74.5213C60.8187 74.5213 60.8187 74.4943 60.8727 74.4673C60.8727 74.4673 62.1937 74.0333 63.1647 73.0843C64.1087 72.1353 64.5397 70.7793 64.5397 70.7793C64.5397 70.7253 64.5947 70.7253 64.5947 70.7253C64.5947 70.7253 64.6477 70.7253 64.6477 70.7793C64.6477 70.7793 65.0797 72.1353 66.0227 73.0843C66.9667 74.0333 68.3147 74.4673 68.3147 74.4673C68.3687 74.4943 68.3687 74.5213 68.3687 74.5213Z" fill="white"/>
<path fill-rule="evenodd" clip-rule="evenodd" d="M95.085 61.568C95.085 61.568 95.085 61.601 95.021 61.633C95.021 61.633 93.431 62.155 92.263 63.297C91.127 64.44 90.607 66.071 90.607 66.071C90.607 66.137 90.543 66.137 90.543 66.137C90.543 66.137 90.51 66.137 90.478 66.071C90.478 66.071 89.959 64.44 88.823 63.297C87.688 62.155 86.064 61.633 86.064 61.633C86 61.633 86 61.568 86 61.568C86 61.568 86 61.536 86.064 61.503C86.064 61.503 87.654 60.981 88.823 59.839C89.959 58.696 90.478 57.065 90.478 57.065C90.478 57 90.543 57 90.543 57C90.543 57 90.607 57 90.607 57.065C90.607 57.065 91.127 58.696 92.263 59.839C93.398 60.981 95.021 61.503 95.021 61.503C95.085 61.536 95.085 61.568 95.085 61.568Z" fill="#C00033"/>
</g>
<defs>
<clipPath id="clip0">
<rect width="100" height="100" fill="white"/>
</clipPath>
</defs>
</svg>
