<svg width="100" height="100" viewBox="0 0 100 100" fill="none" xmlns="http://www.w3.org/2000/svg">
<path fill-rule="evenodd" clip-rule="evenodd" d="M12.964 24.8903C12.964 24.8903 -5.25504 80.0553 62.488 83.3973C70.825 83.4013 84.534 82.3263 89.099 67.9623C90.902 59.7793 88.859 55.2663 84.021 49.8703C82.078 46.9583 79.241 42.5463 84.436 34.7193C89.7471 27.3653 89.7471 8.19226 69.339 4.77426C61.493 3.21126 50.411 6.54726 42.506 15.5513C40.591 17.7283 34.747 23.1873 26.818 15.1843C24.006 12.2443 18.058 9.96626 12.964 24.8903Z" fill="#FFE29B"/>
<path fill-rule="evenodd" clip-rule="evenodd" d="M17.4161 10.254C17.4161 10.254 17.4161 10.313 17.2991 10.372C17.2991 10.372 14.4261 11.315 12.3151 13.379C10.2641 15.442 9.32512 18.39 9.32512 18.39C9.32512 18.508 9.20812 18.508 9.20812 18.508C9.20812 18.508 9.14912 18.508 9.09112 18.39C9.09112 18.39 8.15212 15.442 6.10112 13.379C4.04912 11.315 1.11712 10.372 1.11712 10.372C1.00012 10.372 1.00012 10.254 1.00012 10.254C1.00012 10.254 1.00012 10.195 1.11712 10.136C1.11712 10.136 3.99012 9.192 6.10112 7.129C8.15212 5.066 9.09112 2.117 9.09112 2.117C9.09112 2 9.20812 2 9.20812 2C9.20812 2 9.32512 2 9.32512 2.117C9.32512 2.117 10.2641 5.066 12.3151 7.129C14.3671 9.192 17.2991 10.136 17.2991 10.136C17.4161 10.195 17.4161 10.254 17.4161 10.254Z" fill="#FFCB05"/>
<path fill-rule="evenodd" clip-rule="evenodd" d="M59.0918 74.8531C59.0918 74.8531 59.0918 74.8761 59.0458 74.8991C59.0458 74.8991 57.9338 75.2641 57.1158 76.0631C56.3218 76.8621 55.9588 78.0031 55.9588 78.0031C55.9588 78.0491 55.9128 78.0491 55.9128 78.0491C55.9128 78.0491 55.8908 78.0491 55.8678 78.0031C55.8678 78.0031 55.5048 76.8621 54.7098 76.0631C53.9158 75.2641 52.7808 74.8991 52.7808 74.8991C52.7358 74.8991 52.7358 74.8531 52.7358 74.8531C52.7358 74.8531 52.7358 74.8311 52.7808 74.8081C52.7808 74.8081 53.8938 74.4421 54.7098 73.6441C55.5048 72.8441 55.8678 71.7031 55.8678 71.7031C55.8678 71.6571 55.9128 71.6571 55.9128 71.6571C55.9128 71.6571 55.9588 71.6571 55.9588 71.7031C55.9588 71.7031 56.3218 72.8441 57.1158 73.6441C57.9108 74.4421 59.0458 74.8081 59.0458 74.8081C59.0918 74.8311 59.0918 74.8531 59.0918 74.8531Z" fill="white"/>
<path fill-rule="evenodd" clip-rule="evenodd" d="M68.5636 11.4801C68.5636 11.4801 68.5636 11.5041 68.5166 11.5271C68.5166 11.5271 67.3726 11.9031 66.5316 12.7251C65.7136 13.5471 65.3396 14.7221 65.3396 14.7221C65.3396 14.7691 65.2936 14.7691 65.2936 14.7691C65.2936 14.7691 65.2706 14.7691 65.2476 14.7221C65.2476 14.7221 64.8736 13.5471 64.0556 12.7251C63.2386 11.9031 62.0706 11.5271 62.0706 11.5271C62.0236 11.5271 62.0236 11.4801 62.0236 11.4801C62.0236 11.4801 62.0236 11.4571 62.0706 11.4331C62.0706 11.4331 63.2146 11.0581 64.0556 10.2351C64.8736 9.41314 65.2476 8.23914 65.2476 8.23914C65.2476 8.19214 65.2936 8.19214 65.2936 8.19214C65.2936 8.19214 65.3396 8.19214 65.3396 8.23914C65.3396 8.23914 65.7136 9.41314 66.5316 10.2351C67.3486 11.0581 68.5166 11.4331 68.5166 11.4331C68.5636 11.4571 68.5636 11.4801 68.5636 11.4801Z" fill="#FFCB05"/>
<path fill-rule="evenodd" clip-rule="evenodd" d="M49.6681 91.3648C49.6681 91.3648 49.6681 91.3998 49.5981 91.4348C49.5981 91.4348 47.8821 91.9988 46.6211 93.2318C45.3961 94.4638 44.8351 96.2248 44.8351 96.2248C44.8351 96.2958 44.7651 96.2958 44.7651 96.2958C44.7651 96.2958 44.7301 96.2958 44.6951 96.2248C44.6951 96.2248 44.1351 94.4638 42.9081 93.2318C41.6831 91.9988 39.9321 91.4348 39.9321 91.4348C39.8611 91.4348 39.8611 91.3648 39.8611 91.3648C39.8611 91.3648 39.8611 91.3288 39.9321 91.2938C39.9321 91.2938 41.6471 90.7308 42.9081 89.4978C44.1351 88.2648 44.6951 86.5038 44.6951 86.5038C44.6951 86.4338 44.7651 86.4338 44.7651 86.4338C44.7651 86.4338 44.8351 86.4338 44.8351 86.5038C44.8351 86.5038 45.3961 88.2648 46.6211 89.4978C47.8471 90.7308 49.5981 91.2938 49.5981 91.2938C49.6681 91.3288 49.6681 91.3648 49.6681 91.3648Z" fill="#C00033"/>
<path fill-rule="evenodd" clip-rule="evenodd" d="M7.55376 56.484C7.55376 56.484 7.55376 56.507 7.50676 56.531C7.50676 56.531 6.35976 56.908 5.51776 57.732C4.69876 58.555 4.32376 59.732 4.32376 59.732C4.32376 59.779 4.27676 59.779 4.27676 59.779C4.27676 59.779 4.25276 59.779 4.22976 59.732C4.22976 59.732 3.85576 58.555 3.03576 57.732C2.21676 56.908 1.04676 56.531 1.04676 56.531C0.999756 56.531 0.999756 56.484 0.999756 56.484C0.999756 56.484 0.999756 56.461 1.04676 56.437C1.04676 56.437 2.19376 56.06 3.03576 55.236C3.85576 54.413 4.22976 53.236 4.22976 53.236C4.22976 53.189 4.27676 53.189 4.27676 53.189C4.27676 53.189 4.32376 53.189 4.32376 53.236C4.32376 53.236 4.69876 54.413 5.51776 55.236C6.33576 56.06 7.50676 56.437 7.50676 56.437C7.55376 56.461 7.55376 56.484 7.55376 56.484Z" fill="#C00033"/>
<path fill-rule="evenodd" clip-rule="evenodd" d="M99.4835 43.2076C99.4835 43.2076 99.4835 43.2407 99.4195 43.2727C99.4195 43.2727 97.8285 43.7946 96.6605 44.9366C95.5245 46.0796 95.0055 47.7107 95.0055 47.7107C95.0055 47.7757 94.9405 47.7757 94.9405 47.7757C94.9405 47.7757 94.9085 47.7757 94.8765 47.7107C94.8765 47.7107 94.3565 46.0796 93.2205 44.9366C92.0855 43.7946 90.4625 43.2727 90.4625 43.2727C90.3975 43.2727 90.3975 43.2076 90.3975 43.2076C90.3975 43.2076 90.3975 43.1747 90.4625 43.1427C90.4625 43.1427 92.0525 42.6206 93.2205 41.4786C94.3565 40.3356 94.8765 38.7047 94.8765 38.7047C94.8765 38.6397 94.9405 38.6396 94.9405 38.6396C94.9405 38.6396 95.0055 38.6397 95.0055 38.7047C95.0055 38.7047 95.5245 40.3356 96.6605 41.4786C97.7965 42.6206 99.4195 43.1427 99.4195 43.1427C99.4835 43.1747 99.4835 43.2076 99.4835 43.2076Z" fill="#C00033"/>
<path fill-rule="evenodd" clip-rule="evenodd" d="M74.4551 67.8619H26.0261C23.2701 67.8619 21.0371 65.6279 21.0371 62.8719V23.5539C21.0371 20.7989 23.2701 18.5649 26.0261 18.5649H74.4551C77.2111 18.5649 79.4451 20.7989 79.4451 23.5539V62.8719C79.4451 65.6279 77.2111 67.8619 74.4551 67.8619Z" fill="white"/>
<path fill-rule="evenodd" clip-rule="evenodd" d="M74.54 18.5645H25.941C23.233 18.5645 21.036 20.7605 21.036 23.4695V62.9565C21.036 65.6655 23.233 67.8615 25.941 67.8615H74.54C77.249 67.8615 79.445 65.6655 79.445 62.9565V23.4695C79.445 20.7605 77.249 18.5645 74.54 18.5645ZM74.54 19.9575C76.477 19.9575 78.052 21.5335 78.052 23.4695V62.9565C78.052 64.8935 76.477 66.4685 74.54 66.4685H25.941C24.006 66.4685 22.43 64.8935 22.43 62.9565V23.4695C22.43 21.5335 24.006 19.9575 25.941 19.9575H74.54Z" fill="black"/>
<path fill-rule="evenodd" clip-rule="evenodd" d="M72.6211 63.0434H27.8601C26.7531 63.0434 25.8541 62.1454 25.8541 61.0374V25.3884C25.8541 24.2804 26.7531 23.3824 27.8601 23.3824H72.6211C73.7281 23.3824 74.6271 24.2804 74.6271 25.3884V61.0374C74.6271 62.1454 73.7281 63.0434 72.6211 63.0434Z" fill="white"/>
<path fill-rule="evenodd" clip-rule="evenodd" d="M72.6554 23.3824H27.8274C26.7374 23.3824 25.8544 24.2654 25.8544 25.3544V61.0714C25.8544 62.1604 26.7374 63.0434 27.8274 63.0434H72.6554C73.7444 63.0434 74.6274 62.1604 74.6274 61.0714V25.3544C74.6274 24.2654 73.7444 23.3824 72.6554 23.3824ZM72.6554 24.7764C72.9744 24.7764 73.2334 25.0354 73.2334 25.3544V61.0714C73.2334 61.3904 72.9744 61.6504 72.6554 61.6504H27.8274C27.5084 61.6504 27.2484 61.3904 27.2484 61.0714V25.3544C27.2484 25.0354 27.5084 24.7764 27.8274 24.7764H72.6554Z" fill="black"/>
<path fill-rule="evenodd" clip-rule="evenodd" d="M65.2931 43.2076C65.2931 48.5016 61.0021 52.7936 55.7081 52.7936C50.4141 52.7936 46.1221 48.5016 46.1221 43.2076C46.1221 37.9136 50.4141 33.6226 55.7081 33.6226C61.0021 33.6226 65.2931 37.9136 65.2931 43.2076Z" fill="white"/>
<path fill-rule="evenodd" clip-rule="evenodd" d="M55.7071 33.6221C50.4131 33.6221 46.1221 37.9141 46.1221 43.2071C46.1221 48.5011 50.4131 52.7931 55.7071 52.7931C61.0021 52.7931 65.2941 48.5011 65.2941 43.2071C65.2941 37.9141 61.0021 33.6221 55.7071 33.6221ZM55.7071 35.0151C60.2261 35.0151 63.9001 38.6901 63.9001 43.2071C63.9001 47.7251 60.2261 51.4001 55.7071 51.4001C51.1901 51.4001 47.5161 47.7251 47.5161 43.2071C47.5161 38.6901 51.1901 35.0151 55.7071 35.0151Z" fill="black"/>
<path fill-rule="evenodd" clip-rule="evenodd" d="M60.5771 43.2076C60.5771 45.8966 58.3971 48.0776 55.7081 48.0776C53.0181 48.0776 50.8381 45.8966 50.8381 43.2076C50.8381 40.5186 53.0181 38.3376 55.7081 38.3376C58.3971 38.3376 60.5771 40.5186 60.5771 43.2076Z" fill="#FFCB05"/>
<path fill-rule="evenodd" clip-rule="evenodd" d="M55.707 38.338C53.019 38.338 50.838 40.518 50.838 43.208C50.838 45.897 53.019 48.077 55.707 48.077C58.396 48.077 60.577 45.897 60.577 43.208C60.577 40.518 58.396 38.338 55.707 38.338ZM55.707 39.732C57.624 39.732 59.184 41.291 59.184 43.208C59.184 45.125 57.624 46.684 55.707 46.684C53.791 46.684 52.231 45.125 52.231 43.208C52.231 41.291 53.791 39.732 55.707 39.732Z" fill="black"/>
<path fill-rule="evenodd" clip-rule="evenodd" d="M32.9278 32.4259C32.9278 33.4359 32.1098 34.2549 31.0998 34.2549C30.0898 34.2549 29.2708 33.4359 29.2708 32.4259C29.2708 31.4159 30.0898 30.5969 31.0998 30.5969C32.1098 30.5969 32.9278 31.4159 32.9278 32.4259Z" fill="#F5CB38"/>
<path fill-rule="evenodd" clip-rule="evenodd" d="M31.0996 30.5972C30.0896 30.5972 29.2716 31.4162 29.2716 32.4262C29.2716 33.4352 30.0896 34.2542 31.0996 34.2542C32.1096 34.2542 32.9276 33.4352 32.9276 32.4262C32.9276 31.4162 32.1096 30.5972 31.0996 30.5972ZM31.0996 31.9902C31.3386 31.9902 31.5356 32.1852 31.5356 32.4262C31.5356 32.6662 31.3386 32.8612 31.0996 32.8612C30.8596 32.8612 30.6636 32.6662 30.6636 32.4262C30.6636 32.1852 30.8596 31.9902 31.0996 31.9902Z" fill="black"/>
<path fill-rule="evenodd" clip-rule="evenodd" d="M32.9278 54.1754C32.9278 55.1854 32.1098 56.0044 31.0998 56.0044C30.0898 56.0044 29.2708 55.1854 29.2708 54.1754C29.2708 53.1654 30.0898 52.3464 31.0998 52.3464C32.1098 52.3464 32.9278 53.1654 32.9278 54.1754Z" fill="#F5CB38"/>
<path fill-rule="evenodd" clip-rule="evenodd" d="M31.0996 52.3468C30.0896 52.3468 29.2716 53.1648 29.2716 54.1758C29.2716 55.1848 30.0896 56.0038 31.0996 56.0038C32.1096 56.0038 32.9276 55.1848 32.9276 54.1758C32.9276 53.1648 32.1096 52.3468 31.0996 52.3468ZM31.0996 53.7398C31.3386 53.7398 31.5356 53.9348 31.5356 54.1758C31.5356 54.4148 31.3386 54.6108 31.0996 54.6108C30.8596 54.6108 30.6636 54.4148 30.6636 54.1758C30.6636 53.9348 30.8596 53.7398 31.0996 53.7398Z" fill="black"/>
<path fill-rule="evenodd" clip-rule="evenodd" d="M55.7071 34.6993C55.3221 34.6993 55.0111 34.3873 55.0111 34.0023V30.5973C55.0111 30.2123 55.3221 29.9003 55.7071 29.9003C56.0931 29.9003 56.4041 30.2123 56.4041 30.5973V34.0023C56.4041 34.3873 56.0931 34.6993 55.7071 34.6993Z" fill="black"/>
<path fill-rule="evenodd" clip-rule="evenodd" d="M55.7071 56.5845C55.3221 56.5845 55.0111 56.2725 55.0111 55.8885V52.4825C55.0111 52.0975 55.3221 51.7865 55.7071 51.7865C56.0931 51.7865 56.4041 52.0975 56.4041 52.4825V55.8885C56.4041 56.2725 56.0931 56.5845 55.7071 56.5845Z" fill="black"/>
<path fill-rule="evenodd" clip-rule="evenodd" d="M68.3536 43.939H64.9476C64.5626 43.939 64.2506 43.627 64.2506 43.243C64.2506 42.857 64.5626 42.546 64.9476 42.546H68.3536C68.7386 42.546 69.0506 42.857 69.0506 43.243C69.0506 43.627 68.7386 43.939 68.3536 43.939Z" fill="black"/>
<path fill-rule="evenodd" clip-rule="evenodd" d="M46.4679 43.939H43.0629C42.6779 43.939 42.3649 43.627 42.3649 43.243C42.3649 42.857 42.6779 42.546 43.0629 42.546H46.4679C46.8529 42.546 47.1639 42.857 47.1639 43.243C47.1639 43.627 46.8529 43.939 46.4679 43.939Z" fill="black"/>
<path fill-rule="evenodd" clip-rule="evenodd" d="M30.2266 71.4771H27.8546C26.7496 71.4771 25.8546 70.5811 25.8546 69.4771V66.5681H32.2266V69.4771C32.2266 70.5811 31.3306 71.4771 30.2266 71.4771Z" fill="white"/>
<path fill-rule="evenodd" clip-rule="evenodd" d="M32.2266 66.5684H25.8546V69.5114C25.8546 70.5964 26.7356 71.4774 27.8216 71.4774H30.2606C31.3466 71.4774 32.2266 70.5964 32.2266 69.5114V66.5684ZM30.8326 67.9624V69.5114C30.8326 69.8264 30.5766 70.0844 30.2606 70.0844H27.8216C27.5046 70.0844 27.2476 69.8264 27.2476 69.5114V67.9624H30.8326Z" fill="black"/>
<path fill-rule="evenodd" clip-rule="evenodd" d="M72.627 71.4771H70.255C69.15 71.4771 68.255 70.5811 68.255 69.4771V66.5681H74.627V69.4771C74.627 70.5811 73.731 71.4771 72.627 71.4771Z" fill="white"/>
<path fill-rule="evenodd" clip-rule="evenodd" d="M74.627 66.5684H68.255V69.5114C68.255 70.5964 69.136 71.4774 70.222 71.4774H72.661C73.747 71.4774 74.627 70.5964 74.627 69.5114V66.5684ZM73.233 67.9624V69.5114C73.233 69.8264 72.977 70.0844 72.661 70.0844H70.222C69.905 70.0844 69.648 69.8264 69.648 69.5114V67.9624H73.233Z" fill="black"/>
<path fill-rule="evenodd" clip-rule="evenodd" d="M21.038 37.4015H27.142V27.4495H21.038V37.4015Z" fill="#F5CB38"/>
<path fill-rule="evenodd" clip-rule="evenodd" d="M21.037 37.4015H27.143V27.4495H21.037V37.4015ZM22.43 36.0085H25.749V28.8425H22.43V36.0085Z" fill="black"/>
<path fill-rule="evenodd" clip-rule="evenodd" d="M21.038 59.1515H27.142V49.1985H21.038V59.1515Z" fill="#F5CB38"/>
<path fill-rule="evenodd" clip-rule="evenodd" d="M21.037 59.1515H27.143V49.1985H21.037V59.1515ZM22.43 57.7585H25.749V50.5925H22.43V57.7585Z" fill="black"/>
</svg>
