<svg width="100" height="100" viewBox="0 0 100 100" fill="none" xmlns="http://www.w3.org/2000/svg">
<g clip-path="url(#clip0)">
<path fill-rule="evenodd" clip-rule="evenodd" d="M80.3296 70.069C74.6551 80.7463 61.8287 89.119 54.3589 81.3407C50.1608 77.7274 48.5711 72.0586 31.4796 74.0048C24.5806 74.669 12.2891 74.2341 10.891 57.5548C10.6504 54.1454 11.1994 45.3661 20.5278 37.1359C23.3627 34.718 32.0749 29.4463 25.4042 19.5312C21.5145 13.7765 26.5579 5.81895 41.9759 8.22933C49.0796 8.99254 108.144 17.7322 80.3296 70.069Z" fill="#FFE29B"/>
<path fill-rule="evenodd" clip-rule="evenodd" d="M16.9627 7.78679C16.9627 7.78679 16.9627 7.84245 16.8514 7.89811C16.8514 7.89811 14.142 8.78773 12.1495 10.7349C10.2146 12.6811 9.32875 15.4623 9.32875 15.4623C9.32875 15.5736 9.21837 15.5736 9.21837 15.5736C9.21837 15.5736 9.16271 15.5736 9.10799 15.4623C9.10799 15.4623 8.22309 12.6811 6.28724 10.7349C4.35139 8.78773 1.58535 7.89811 1.58535 7.89811C1.47498 7.89811 1.47498 7.78679 1.47498 7.78679C1.47498 7.78679 1.47498 7.73113 1.58535 7.67547C1.58535 7.67547 4.29573 6.78491 6.28724 4.83868C8.22309 2.89245 9.10799 0.110377 9.10799 0.110377C9.10799 0 9.21837 0 9.21837 0C9.21837 0 9.32875 0 9.32875 0.110377C9.32875 0.110377 10.2146 2.89245 12.1495 4.83868C14.0863 6.78491 16.8514 7.67547 16.8514 7.67547C16.9627 7.73113 16.9627 7.78679 16.9627 7.78679Z" fill="#FFCB05"/>
<path fill-rule="evenodd" clip-rule="evenodd" d="M66.7849 75.37C66.7849 75.37 66.7849 75.3964 66.7321 75.4229C66.7321 75.4229 65.451 75.8436 64.5085 76.7644C63.5934 77.6851 63.1746 79.0012 63.1746 79.0012C63.1746 79.0531 63.1217 79.0531 63.1217 79.0531C63.1217 79.0531 63.0963 79.0531 63.0698 79.0012C63.0698 79.0012 62.651 77.6851 61.7349 76.7644C60.8199 75.8436 59.5123 75.4229 59.5123 75.4229C59.4595 75.4229 59.4595 75.37 59.4595 75.37C59.4595 75.37 59.4595 75.3436 59.5123 75.3172C59.5123 75.3172 60.7934 74.8965 61.7349 73.9757C62.651 73.0549 63.0698 71.7389 63.0698 71.7389C63.0698 71.687 63.1217 71.687 63.1217 71.687C63.1217 71.687 63.1746 71.687 63.1746 71.7389C63.1746 71.7389 63.5934 73.0549 64.5085 73.9757C65.4246 74.8965 66.7321 75.3172 66.7321 75.3172C66.7849 75.3436 66.7849 75.37 66.7849 75.37Z" fill="white"/>
<path fill-rule="evenodd" clip-rule="evenodd" d="M37.43 16.6409C37.43 16.6409 37.43 16.6626 37.3857 16.6843C37.3857 16.6843 36.3243 17.0333 35.5432 17.7965C34.7847 18.5597 34.4376 19.6494 34.4376 19.6494C34.4376 19.6928 34.3942 19.6928 34.3942 19.6928C34.3942 19.6928 34.3734 19.6928 34.3508 19.6494C34.3508 19.6494 34.0045 18.5597 33.2451 17.7965C32.4876 17.0333 31.4027 16.6843 31.4027 16.6843C31.3593 16.6843 31.3593 16.6409 31.3593 16.6409C31.3593 16.6409 31.3593 16.6192 31.4027 16.5975C31.4027 16.5975 32.4649 16.2484 33.2451 15.4852C34.0045 14.723 34.3508 13.6324 34.3508 13.6324C34.3508 13.589 34.3942 13.589 34.3942 13.589C34.3942 13.589 34.4376 13.589 34.4376 13.6324C34.4376 13.6324 34.7847 14.723 35.5432 15.4852C36.3026 16.2484 37.3857 16.5975 37.3857 16.5975C37.43 16.6192 37.43 16.6409 37.43 16.6409Z" fill="#FFCB05"/>
<path fill-rule="evenodd" clip-rule="evenodd" d="M78.1832 64.8988H24.2888C22.719 64.8988 21.4454 63.6261 21.4454 62.0554V35.9224C21.4454 34.3526 22.719 33.079 24.2888 33.079H78.1832C79.753 33.079 81.0266 34.3526 81.0266 35.9224V62.0554C81.0266 63.6261 79.753 64.8988 78.1832 64.8988Z" fill="white"/>
<path fill-rule="evenodd" clip-rule="evenodd" d="M78.231 33.0795H24.2413C22.697 33.0795 21.446 34.3314 21.446 35.8738V62.104C21.446 63.6474 22.697 64.8993 24.2413 64.8993H78.231C79.7743 64.8993 81.0262 63.6474 81.0262 62.104V35.8738C81.0262 34.3314 79.7743 33.0795 78.231 33.0795ZM78.231 34.3936C79.0479 34.3936 79.7111 35.0578 79.7111 35.8738V62.104C79.7111 62.92 79.0479 63.5842 78.231 63.5842H24.2413C23.4243 63.5842 22.7602 62.92 22.7602 62.104V35.8738C22.7602 35.0578 23.4243 34.3936 24.2413 34.3936H78.231Z" fill="black"/>
<path fill-rule="evenodd" clip-rule="evenodd" d="M73.6992 60.9703H19.8058C18.235 60.9703 16.9624 59.6967 16.9624 58.1269V31.9939C16.9624 30.4232 18.235 29.1505 19.8058 29.1505H73.6992C75.269 29.1505 76.5426 30.4232 76.5426 31.9939V58.1269C76.5426 59.6967 75.269 60.9703 73.6992 60.9703Z" fill="white"/>
<path fill-rule="evenodd" clip-rule="evenodd" d="M73.7471 29.1505H19.7574C18.214 29.1505 16.9622 30.4024 16.9622 31.9449V58.175C16.9622 59.7184 18.214 60.9703 19.7574 60.9703H73.7471C75.2914 60.9703 76.5423 59.7184 76.5423 58.175V31.9449C76.5423 30.4024 75.2914 29.1505 73.7471 29.1505ZM73.7471 30.4656C74.564 30.4656 75.2272 31.1288 75.2272 31.9449V58.175C75.2272 58.9911 74.564 59.6552 73.7471 59.6552H19.7574C18.9405 59.6552 18.2763 58.9911 18.2763 58.175V31.9449C18.2763 31.1288 18.9405 30.4656 19.7574 30.4656H73.7471Z" fill="black"/>
<mask id="mask0" mask-type="alpha" maskUnits="userSpaceOnUse" x="32" y="83" width="11" height="10">
<path d="M32.7799 83.2565H42.0318V92.5601H32.7799V83.2565Z" fill="white"/>
</mask>
<g mask="url(#mask0)">
<path fill-rule="evenodd" clip-rule="evenodd" d="M42.0318 87.9084C42.0318 87.9084 42.0318 87.9414 41.9658 87.9744C41.9658 87.9744 40.3469 88.5065 39.1573 89.6697C38.0016 90.8319 37.4724 92.4933 37.4724 92.4933C37.4724 92.5602 37.4063 92.5602 37.4063 92.5602C37.4063 92.5602 37.3733 92.5602 37.3393 92.4933C37.3393 92.4933 36.811 90.8319 35.6544 89.6697C34.4988 88.5065 32.8469 87.9744 32.8469 87.9744C32.7799 87.9744 32.7799 87.9084 32.7799 87.9084C32.7799 87.9084 32.7799 87.8753 32.8469 87.8414C32.8469 87.8414 34.4648 87.3102 35.6544 86.147C36.811 84.9838 37.3393 83.3235 37.3393 83.3235C37.3393 83.2565 37.4063 83.2565 37.4063 83.2565C37.4063 83.2565 37.4724 83.2565 37.4724 83.3235C37.4724 83.3235 38.0016 84.9838 39.1573 86.147C40.3139 87.3102 41.9658 87.8414 41.9658 87.8414C42.0318 87.8753 42.0318 87.9084 42.0318 87.9084Z" fill="#C00033"/>
</g>
<mask id="mask1" mask-type="alpha" maskUnits="userSpaceOnUse" x="0" y="53" width="7" height="8">
<path d="M0 53.8884H6.18274V60.1054H0V53.8884Z" fill="white"/>
</mask>
<g mask="url(#mask1)">
<path fill-rule="evenodd" clip-rule="evenodd" d="M6.18271 56.9969C6.18271 56.9969 6.18271 57.0186 6.13837 57.0413C6.13837 57.0413 5.05724 57.3969 4.26196 58.1743C3.48932 58.9507 3.13554 60.0611 3.13554 60.0611C3.13554 60.1054 3.0912 60.1054 3.0912 60.1054C3.0912 60.1054 3.06856 60.1054 3.04686 60.0611C3.04686 60.0611 2.69403 58.9507 1.92045 58.1743C1.14781 57.3969 0.0440345 57.0413 0.0440345 57.0413C-0.000305172 57.0413 -0.000305176 56.9969 -0.000305176 56.9969C-0.000305176 56.9969 -0.000305172 56.9752 0.0440345 56.9526C0.0440345 56.9526 1.12611 56.5969 1.92045 55.8196C2.69403 55.0431 3.04686 53.9328 3.04686 53.9328C3.04686 53.8884 3.0912 53.8884 3.0912 53.8884C3.0912 53.8884 3.13554 53.8884 3.13554 53.9328C3.13554 53.9328 3.48932 55.0431 4.26196 55.8196C5.0346 56.5969 6.13837 56.9526 6.13837 56.9526C6.18271 56.9752 6.18271 56.9969 6.18271 56.9969Z" fill="#C00033"/>
</g>
<mask id="mask2" mask-type="alpha" maskUnits="userSpaceOnUse" x="91" y="49" width="9" height="9">
<path d="M91.4182 49.281H99.9896V57.9008H91.4182V49.281Z" fill="white"/>
</mask>
<g mask="url(#mask2)">
<path fill-rule="evenodd" clip-rule="evenodd" d="M99.9899 53.5914C99.9899 53.5914 99.9899 53.6216 99.9286 53.6527C99.9286 53.6527 98.4286 54.1452 97.3267 55.2225C96.255 56.3008 95.7644 57.8395 95.7644 57.8395C95.7644 57.9008 95.7041 57.9008 95.7041 57.9008C95.7041 57.9008 95.6739 57.9008 95.6427 57.8395C95.6427 57.8395 95.1531 56.3008 94.0814 55.2225C93.0107 54.1452 91.4795 53.6527 91.4795 53.6527C91.4182 53.6527 91.4182 53.5914 91.4182 53.5914C91.4182 53.5914 91.4182 53.5603 91.4795 53.5301C91.4795 53.5301 92.9795 53.0376 94.0814 51.9603C95.1531 50.8819 95.6427 49.3433 95.6427 49.3433C95.6427 49.281 95.7041 49.281 95.7041 49.281C95.7041 49.281 95.7644 49.281 95.7644 49.3433C95.7644 49.3433 96.255 50.8819 97.3267 51.9603C98.3984 53.0376 99.9286 53.5301 99.9286 53.5301C99.9899 53.5603 99.9899 53.5914 99.9899 53.5914Z" fill="#C00033"/>
</g>
<path fill-rule="evenodd" clip-rule="evenodd" d="M69.0264 56.4446H15.1321C13.5623 56.4446 12.2887 55.1719 12.2887 53.6012V27.4682C12.2887 25.8983 13.5623 24.6248 15.1321 24.6248H69.0264C70.5962 24.6248 71.8698 25.8983 71.8698 27.4682V53.6012C71.8698 55.1719 70.5962 56.4446 69.0264 56.4446Z" fill="white"/>
<path fill-rule="evenodd" clip-rule="evenodd" d="M69.0743 24.6252H15.0847C13.5404 24.6252 12.2894 25.8762 12.2894 27.4196V53.6498C12.2894 55.1932 13.5404 56.4451 15.0847 56.4451H69.0743C70.6177 56.4451 71.8696 55.1932 71.8696 53.6498V27.4196C71.8696 25.8762 70.6177 24.6252 69.0743 24.6252ZM69.0743 25.9394C69.8904 25.9394 70.5545 26.6035 70.5545 27.4196V53.6498C70.5545 54.4658 69.8904 55.13 69.0743 55.13H15.0847C14.2677 55.13 13.6036 54.4658 13.6036 53.6498V27.4196C13.6036 26.6035 14.2677 25.9394 15.0847 25.9394H69.0743Z" fill="black"/>
<path fill-rule="evenodd" clip-rule="evenodd" d="M55.1353 40.5349C55.1353 47.7462 49.29 53.5915 42.0787 53.5915C34.8683 53.5915 29.0221 47.7462 29.0221 40.5349C29.0221 33.3236 34.8683 27.4783 42.0787 27.4783C49.29 27.4783 55.1353 33.3236 55.1353 40.5349Z" fill="white"/>
<path fill-rule="evenodd" clip-rule="evenodd" d="M42.0788 27.4785C34.8675 27.4785 29.0222 33.3238 29.0222 40.5351C29.0222 47.7455 34.8675 53.5917 42.0788 53.5917C49.2901 53.5917 55.1354 47.7455 55.1354 40.5351C55.1354 33.3238 49.2901 27.4785 42.0788 27.4785ZM42.0788 28.7927C48.5533 28.7927 53.8213 34.0606 53.8213 40.5351C53.8213 47.0096 48.5533 52.2766 42.0788 52.2766C35.6052 52.2766 30.3373 47.0096 30.3373 40.5351C30.3373 34.0606 35.6052 28.7927 42.0788 28.7927Z" fill="black"/>
<path fill-rule="evenodd" clip-rule="evenodd" d="M51.6519 40.5349C51.6519 45.8217 47.366 50.1076 42.0792 50.1076C36.7924 50.1076 32.5066 45.8217 32.5066 40.5349C32.5066 35.2481 36.7924 30.9623 42.0792 30.9623C47.366 30.9623 51.6519 35.2481 51.6519 40.5349Z" fill="white"/>
<path fill-rule="evenodd" clip-rule="evenodd" d="M42.0788 30.9624C36.792 30.9624 32.5071 35.2483 32.5071 40.535C32.5071 45.8218 36.792 50.1067 42.0788 50.1067C47.3656 50.1067 51.6514 45.8218 51.6514 40.535C51.6514 35.2483 47.3656 30.9624 42.0788 30.9624ZM42.0788 32.2766C46.6325 32.2766 50.3373 35.9813 50.3373 40.535C50.3373 45.0888 46.6325 48.7926 42.0788 48.7926C37.5259 48.7926 33.8212 45.0888 33.8212 40.535C33.8212 35.9813 37.5259 32.2766 42.0788 32.2766Z" fill="black"/>
<path fill-rule="evenodd" clip-rule="evenodd" d="M44.464 44.3712C44.464 43.7495 44.3159 43.2655 44.0188 42.9193C43.7225 42.5731 43.1989 42.2514 42.4508 41.9542V46.8297C43.0716 46.7306 43.5631 46.4655 43.9244 46.0344C44.2848 45.6042 44.464 45.0485 44.464 44.3712ZM39.7178 36.2966C39.7178 36.9183 39.8895 37.4268 40.2367 37.8221C40.582 38.2183 41.1027 38.5429 41.7942 38.7966V34.1127C41.2706 34.1551 40.7933 34.357 40.364 34.7183C39.9329 35.0768 39.7178 35.6042 39.7178 36.2966ZM41.7725 49.6051V47.4655C40.4593 47.4655 39.4018 47.2287 38.6046 46.7551C37.8055 46.2816 37.4065 45.6287 37.4065 44.7948C37.4065 44.3853 37.5263 44.0608 37.7659 43.8202C38.0055 43.5806 38.3046 43.4599 38.6565 43.4599C38.9961 43.4599 39.2933 43.5655 39.5461 43.7778C39.8018 43.99 39.9706 44.3646 40.0555 44.9004L40.098 45.2825C40.1829 45.8334 40.364 46.2297 40.6376 46.4693C40.914 46.7099 41.2923 46.8438 41.7725 46.8721V41.7004L41.264 41.5315C40.0622 41.1221 39.1376 40.5844 38.4876 39.9202C37.8376 39.2561 37.5131 38.4089 37.5131 37.3768C37.5131 36.2891 37.8942 35.374 38.6565 34.6325C39.4206 33.891 40.4659 33.4778 41.7942 33.3929V31.4636H42.4716V33.3929C43.7008 33.4353 44.6518 33.7183 45.3225 34.241C45.9933 34.7636 46.3301 35.3787 46.3301 36.0844C46.3301 36.508 46.2188 36.8297 46.0008 37.0485C45.781 37.2674 45.4886 37.3768 45.1206 37.3768C44.8103 37.3768 44.5272 37.2712 44.2744 37.0589C44.0188 36.8466 43.8357 36.4372 43.7225 35.8306L43.6169 35.3429C43.5461 34.9334 43.4225 34.6372 43.2461 34.4523C43.0688 34.2693 42.8112 34.1551 42.4716 34.1127V39.0306L42.7678 39.1146C44.2376 39.5957 45.2697 40.1929 45.8622 40.9061C46.4555 41.6193 46.7527 42.457 46.7527 43.4174C46.7527 44.5193 46.3678 45.4372 45.598 46.1731C44.8282 46.907 43.7782 47.3306 42.4508 47.4438V49.6051H41.7725Z" fill="black"/>
<path fill-rule="evenodd" clip-rule="evenodd" d="M66.0996 40.751C66.0996 43.1311 64.1703 45.0604 61.7901 45.0604C59.41 45.0604 57.4807 43.1311 57.4807 40.751C57.4807 38.3708 59.41 36.4415 61.7901 36.4415C64.1703 36.4415 66.0996 38.3708 66.0996 40.751Z" fill="#FFCB05"/>
<path fill-rule="evenodd" clip-rule="evenodd" d="M61.7897 36.4417C59.4104 36.4417 57.4802 38.3709 57.4802 40.7511C57.4802 43.1313 59.4104 45.0605 61.7897 45.0605C64.1698 45.0605 66.0991 43.1313 66.0991 40.7511C66.0991 38.3709 64.1698 36.4417 61.7897 36.4417ZM61.7897 37.7558C63.4415 37.7558 64.7849 39.0992 64.7849 40.7511C64.7849 42.402 63.4415 43.7464 61.7897 43.7464C60.1387 43.7464 58.7944 42.402 58.7944 40.7511C58.7944 39.0992 60.1387 37.7558 61.7897 37.7558Z" fill="black"/>
<path fill-rule="evenodd" clip-rule="evenodd" d="M25.8955 40.751C25.8955 43.1311 23.9662 45.0604 21.586 45.0604C19.2059 45.0604 17.2766 43.1311 17.2766 40.751C17.2766 38.3708 19.2059 36.4415 21.586 36.4415C23.9662 36.4415 25.8955 38.3708 25.8955 40.751Z" fill="#F5CB38"/>
<path fill-rule="evenodd" clip-rule="evenodd" d="M21.5857 36.4417C19.2065 36.4417 17.2772 38.3709 17.2772 40.7511C17.2772 43.1313 19.2065 45.0605 21.5857 45.0605C23.9659 45.0605 25.8951 43.1313 25.8951 40.7511C25.8951 38.3709 23.9659 36.4417 21.5857 36.4417ZM21.5857 37.7558C23.2376 37.7558 24.581 39.0992 24.581 40.7511C24.581 42.402 23.2376 43.7464 21.5857 43.7464C19.9348 43.7464 18.5914 42.402 18.5914 40.7511C18.5914 39.0992 19.9348 37.7558 21.5857 37.7558Z" fill="black"/>
<path fill-rule="evenodd" clip-rule="evenodd" d="M27.601 61.2968H31.884V59.4402H27.601V61.2968Z" fill="white"/>
<path fill-rule="evenodd" clip-rule="evenodd" d="M55.0491 56.8364H60.7604V54.7231H55.0491V56.8364Z" fill="white"/>
<path fill-rule="evenodd" clip-rule="evenodd" d="M48.5708 26.2921H52.8538V24.6251H48.5708V26.2921Z" fill="white"/>
<path fill-rule="evenodd" clip-rule="evenodd" d="M33.7374 50.6013H13.0506C12.6883 50.6013 12.3931 50.3069 12.3931 49.9447C12.3931 49.5814 12.6883 49.2871 13.0506 49.2871H33.7374C34.1006 49.2871 34.394 49.5814 34.394 49.9447C34.394 50.3069 34.1006 50.6013 33.7374 50.6013Z" fill="black"/>
<path fill-rule="evenodd" clip-rule="evenodd" d="M70.7603 31.6192H50.0744C49.7112 31.6192 49.4169 31.3249 49.4169 30.9626C49.4169 30.5994 49.7112 30.3051 50.0744 30.3051H70.7603C71.1235 30.3051 71.4178 30.5994 71.4178 30.9626C71.4178 31.3249 71.1235 31.6192 70.7603 31.6192Z" fill="black"/>
<path fill-rule="evenodd" clip-rule="evenodd" d="M55.0491 56.8364H60.7604V54.7231H55.0491V56.8364Z" fill="white"/>
</g>
<defs>
<clipPath id="clip0">
<rect width="100" height="100" fill="white"/>
</clipPath>
</defs>
</svg>
